<svg width="24" height="24" viewBox="0 0 24 24" fill="none" xmlns="http://www.w3.org/2000/svg">
<path d="M19.14 12.94C19.24 12.56 19.3 12.17 19.3 11.77C19.3 11.37 19.24 10.98 19.14 10.6L21.23 8.5C21.62 8.11 21.62 7.49 21.23 7.1L18.9 4.77C18.51 4.38 17.89 4.38 17.5 4.77L15.4 6.86C15.02 6.76 14.63 6.7 14.23 6.7C13.83 6.7 13.44 6.76 13.06 6.86L11.5 4.77C11.11 4.38 10.49 4.38 10.1 4.77L7.77 7.1C7.38 7.49 7.38 8.11 7.77 8.5L9.86 10.6C9.76 10.98 9.7 11.37 9.7 11.77C9.7 12.17 9.76 12.56 9.86 12.94L7.77 15.04C7.38 15.43 7.38 16.05 7.77 16.44L10.1 18.77C10.49 19.16 11.11 19.16 11.5 18.77L13.6 16.68C13.98 16.78 14.37 16.84 14.77 16.84C15.17 16.84 15.56 16.78 15.94 16.68L17.5 18.77C17.89 19.16 18.51 19.16 18.9 18.77L21.23 16.44C21.62 16.05 21.62 15.43 21.23 15.04L19.14 12.94ZM14.77 14.84C13.21 14.84 11.95 13.58 11.95 12.02C11.95 10.46 13.21 9.2 14.77 9.2C16.33 9.2 17.59 10.46 17.59 12.02C17.59 13.58 16.33 14.84 14.77 14.84Z" stroke="currentColor" stroke-width="1.5" fill="none"/>
</svg>