<svg xmlns="http://www.w3.org/2000/svg" width="24" height="24" viewBox="0 0 24 24" fill="none" stroke="currentColor" stroke-width="1.5" stroke-linecap="round" stroke-linejoin="round">
  <circle cx="12" cy="12" r="3"/>
  <path d="M19.4 15a1.65 1.65 0 00.33 1.4l.06.07a2 2 0 010 2.83 2 2 0 01-2.83 0l-.07-.06a1.65 1.65 0 00-1.4-.33 1.65 1.65 0 00-1 1.14V21a2 2 0 01-4 0v-.09a1.65 1.65 0 00-1.14-1 1.65 1.65 0 00-1.4.33l-.07.06a2 2 0 01-2.83-2.83l.06-.07a1.65 1.65 0 00.33-1.4 1.65 1.65 0 00-1.14-1H3a2 2 0 010-4h.09a1.65 1.65 0 001-1.14 1.65 1.65 0 00-.33-1.4l-.06-.07a2 2 0 012.83-2.83l.07.06a1.65 1.65 0 001.4.33H9a1.65 1.65 0 001-1.14V3a2 2 0 014 0v.09a1.65 1.65 0 001.14 1 1.65 1.65 0 001.4-.33l.07-.06a2 2 0 012.83 2.83l-.06.07a1.65 1.65 0 00-.33 1.4V9c.17.6.62 1.02 1.14 1.14H21a2 2 0 010 4h-.09a1.65 1.65 0 00-1.14 1z"/>
</svg>